<svg width="2368" height="2107" viewBox="0 0 2368 2107" fill="none" xmlns="http://www.w3.org/2000/svg">
<path d="M560 1302.5L688 1080.8L1248 2050.75H992L864 1829.05L736 2050.75H608L544 1939.9L736 1607.34L560 1302.5Z" fill="url(#paint0_linear_1_31)"/>
<path d="M656 637.395L912 637.395L352 1607.34L224 1385.64L352 1163.94L96 1163.94L32 1053.09L96 942.236L480 942.236L656 637.395Z" fill="url(#paint1_linear_1_31)"/>
<path d="M1280 387.979L1408 609.682L288 609.682L416 387.979L672 387.979L544 166.277L608 55.4256L736 55.4257L928 387.979L1280 387.979Z" fill="url(#paint2_linear_1_31)"/>
<path d="M1808 803.672L1680 1025.37L1120 55.4257L1376 55.4257L1504 277.128L1632 55.4257H1760L1824 166.277L1632 498.831L1808 803.672Z" fill="url(#paint3_linear_1_31)"/>
<path d="M1712 1468.78L1456 1468.78L2016 498.831L2144 720.533L2016 942.236L2272 942.236L2336 1053.09L2272 1163.94L1888 1163.94L1712 1468.78Z" fill="url(#paint4_linear_1_31)"/>
<path d="M1088 1718.19L960 1496.49L2080 1496.49L1952 1718.19L1696 1718.19L1824 1939.9L1760 2050.75L1632 2050.75L1440 1718.19L1088 1718.19Z" fill="url(#paint5_linear_1_31)"/>
<defs>
<linearGradient id="paint0_linear_1_31" x1="544" y1="1053.09" x2="992" y2="1829.05" gradientUnits="userSpaceOnUse">
<stop stop-color="#3E5993"/>
<stop offset="0.25" stop-color="#4564A5"/>
<stop offset="1" stop-color="#4D6FB7"/>
</linearGradient>
<linearGradient id="paint1_linear_1_31" x1="864" y1="498.831" x2="416" y2="1274.79" gradientUnits="userSpaceOnUse">
<stop stop-color="#6D9BBC"/>
<stop offset="0.25" stop-color="#72A9CF"/>
<stop offset="1" stop-color="#77B6E1"/>
</linearGradient>
<linearGradient id="paint2_linear_1_31" x1="1504" y1="498.831" x2="608" y2="498.831" gradientUnits="userSpaceOnUse">
<stop stop-color="#3E5993"/>
<stop offset="0.25" stop-color="#4564A5"/>
<stop offset="1" stop-color="#4D6FB7"/>
</linearGradient>
<linearGradient id="paint3_linear_1_31" x1="1824" y1="1053.09" x2="1376" y2="277.128" gradientUnits="userSpaceOnUse">
<stop stop-color="#6D9BBC"/>
<stop offset="0.25" stop-color="#72A9CF"/>
<stop offset="1" stop-color="#77B6E1"/>
</linearGradient>
<linearGradient id="paint4_linear_1_31" x1="1504" y1="1607.34" x2="1952" y2="831.384" gradientUnits="userSpaceOnUse">
<stop stop-color="#3E5993"/>
<stop offset="0.25" stop-color="#4564A5"/>
<stop offset="1" stop-color="#4D6FB7"/>
</linearGradient>
<linearGradient id="paint5_linear_1_31" x1="864" y1="1607.34" x2="1760" y2="1607.34" gradientUnits="userSpaceOnUse">
<stop stop-color="#6D9BBC"/>
<stop offset="0.25" stop-color="#72A9CF"/>
<stop offset="1" stop-color="#77B6E1"/>
</linearGradient>
</defs>
</svg>
